{
    "asset" : {
        "generator" : "Khronos glTF Blender I/O v1.3.48",
        "version" : "2.0"
    },
    "scene" : 0,
    "scenes" : [
        {
            "name" : "Scene",
            "nodes" : [
                0,
                1,
                2,
                3,
                4,
                5
            ]
        }
    ],
    "nodes" : [
        {
            "name" : "Light",
            "rotation" : [
                0.16907575726509094,
                0.7558803558349609,
                -0.27217137813568115,
                0.570947527885437
            ],
            "translation" : [
                6.027163505554199,
                5.903861999511719,
                -2.575330972671509
            ]
        },
        {
            "name" : "Camera",
            "rotation" : [
                0.5,
                0.5,
                -0.5,
                0.4999999701976776
            ],
            "scale" : [
                1.7763774394989014,
                1.7763774394989014,
                1.7763774394989014
            ],
            "translation" : [
                15,
                3,
                0
            ]
        },
        {
            "mesh" : 0,
            "name" : "Logo_In",
            "rotation" : [
                0,
                0,
                -0.7071068286895752,
                0.7071068286895752
            ],
            "scale" : [
                2.485504388809204,
                -0.0714411810040474,
                2.45522403717041
            ],
            "translation" : [
                -0.004046503454446793,
                3.115955352783203,
                0
            ]
        },
        {
            "mesh" : 1,
            "name" : "Logo_Out",
            "rotation" : [
                0,
                0,
                -0.7071068286895752,
                0.7071068286895752
            ],
            "scale" : [
                2.601567029953003,
                -0.2713289260864258,
                2.601567029953003
            ],
            "translation" : [
                0,
                3.1256940364837646,
                0
            ]
        },
        {
            "mesh" : 2,
            "name" : "Underscore",
            "scale" : [
                0.2722104787826538,
                0.17132940888404846,
                0.733211874961853
            ],
            "translation" : [
                0,
                2.2710769176483154,
                -0.8338053822517395
            ]
        },
        {
            "mesh" : 3,
            "name" : "Chevron",
            "rotation" : [
                -0.3434433043003082,
                0,
                0,
                0.9391734004020691
            ],
            "scale" : [
                0.2722104787826538,
                0.17132940888404846,
                0.733211874961853
            ],
            "translation" : [
                0.0016506761312484741,
                3.939591407775879,
                0.8569417595863342
            ]
        }
    ],
    "materials" : [
        {
            "doubleSided" : true,
            "name" : "Incircle",
            "pbrMetallicRoughness" : {}
        },
        {
            "doubleSided" : true,
            "name" : "Outercircle",
            "pbrMetallicRoughness" : {}
        },
        {
            "doubleSided" : true,
            "name" : "Underscore",
            "pbrMetallicRoughness" : {}
        }
    ],
    "meshes" : [
        {
            "name" : "Cylinder",
            "primitives" : [
                {
                    "attributes" : {
                        "POSITION" : 0,
                        "NORMAL" : 1,
                        "TEXCOORD_0" : 2
                    },
                    "indices" : 3,
                    "material" : 0
                }
            ]
        },
        {
            "name" : "Cylinder.001",
            "primitives" : [
                {
                    "attributes" : {
                        "POSITION" : 4,
                        "NORMAL" : 5,
                        "TEXCOORD_0" : 6
                    },
                    "indices" : 7,
                    "material" : 1
                }
            ]
        },
        {
            "name" : "Cube.001",
            "primitives" : [
                {
                    "attributes" : {
                        "POSITION" : 8,
                        "NORMAL" : 9,
                        "TEXCOORD_0" : 10
                    },
                    "indices" : 11,
                    "material" : 2
                }
            ]
        },
        {
            "name" : "Cube.002",
            "primitives" : [
                {
                    "attributes" : {
                        "POSITION" : 12,
                        "NORMAL" : 13,
                        "TEXCOORD_0" : 14
                    },
                    "indices" : 15,
                    "material" : 2
                }
            ]
        }
    ],
    "accessors" : [
        {
            "bufferView" : 0,
            "componentType" : 5126,
            "count" : 192,
            "max" : [
                1,
                1,
                1
            ],
            "min" : [
                -1,
                -1,
                -1
            ],
            "type" : "VEC3"
        },
        {
            "bufferView" : 1,
            "componentType" : 5126,
            "count" : 192,
            "type" : "VEC3"
        },
        {
            "bufferView" : 2,
            "componentType" : 5126,
            "count" : 192,
            "type" : "VEC2"
        },
        {
            "bufferView" : 3,
            "componentType" : 5123,
            "count" : 372,
            "type" : "SCALAR"
        },
        {
            "bufferView" : 4,
            "componentType" : 5126,
            "count" : 396,
            "max" : [
                1,
                1,
                1
            ],
            "min" : [
                -1,
                -1,
                -1
            ],
            "type" : "VEC3"
        },
        {
            "bufferView" : 5,
            "componentType" : 5126,
            "count" : 396,
            "type" : "VEC3"
        },
        {
            "bufferView" : 6,
            "componentType" : 5126,
            "count" : 396,
            "type" : "VEC2"
        },
        {
            "bufferView" : 7,
            "componentType" : 5123,
            "count" : 774,
            "type" : "SCALAR"
        },
        {
            "bufferView" : 8,
            "componentType" : 5126,
            "count" : 24,
            "max" : [
                1,
                1,
                1
            ],
            "min" : [
                -1,
                -1,
                -1
            ],
            "type" : "VEC3"
        },
        {
            "bufferView" : 9,
            "componentType" : 5126,
            "count" : 24,
            "type" : "VEC3"
        },
        {
            "bufferView" : 10,
            "componentType" : 5126,
            "count" : 24,
            "type" : "VEC2"
        },
        {
            "bufferView" : 11,
            "componentType" : 5123,
            "count" : 36,
            "type" : "SCALAR"
        },
        {
            "bufferView" : 12,
            "componentType" : 5126,
            "count" : 40,
            "max" : [
                1.030239462852478,
                1.3113499879837036,
                0.8460342884063721
            ],
            "min" : [
                -1.030239462852478,
                -7.526873588562012,
                -1.366454005241394
            ],
            "type" : "VEC3"
        },
        {
            "bufferView" : 13,
            "componentType" : 5126,
            "count" : 40,
            "type" : "VEC3"
        },
        {
            "bufferView" : 14,
            "componentType" : 5126,
            "count" : 40,
            "type" : "VEC2"
        },
        {
            "bufferView" : 15,
            "componentType" : 5123,
            "count" : 60,
            "type" : "SCALAR"
        }
    ],
    "bufferViews" : [
        {
            "buffer" : 0,
            "byteLength" : 2304,
            "byteOffset" : 0
        },
        {
            "buffer" : 0,
            "byteLength" : 2304,
            "byteOffset" : 2304
        },
        {
            "buffer" : 0,
            "byteLength" : 1536,
            "byteOffset" : 4608
        },
        {
            "buffer" : 0,
            "byteLength" : 744,
            "byteOffset" : 6144
        },
        {
            "buffer" : 0,
            "byteLength" : 4752,
            "byteOffset" : 6888
        },
        {
            "buffer" : 0,
            "byteLength" : 4752,
            "byteOffset" : 11640
        },
        {
            "buffer" : 0,
            "byteLength" : 3168,
            "byteOffset" : 16392
        },
        {
            "buffer" : 0,
            "byteLength" : 1548,
            "byteOffset" : 19560
        },
        {
            "buffer" : 0,
            "byteLength" : 288,
            "byteOffset" : 21108
        },
        {
            "buffer" : 0,
            "byteLength" : 288,
            "byteOffset" : 21396
        },
        {
            "buffer" : 0,
            "byteLength" : 192,
            "byteOffset" : 21684
        },
        {
            "buffer" : 0,
            "byteLength" : 72,
            "byteOffset" : 21876
        },
        {
            "buffer" : 0,
            "byteLength" : 480,
            "byteOffset" : 21948
        },
        {
            "buffer" : 0,
            "byteLength" : 480,
            "byteOffset" : 22428
        },
        {
            "buffer" : 0,
            "byteLength" : 320,
            "byteOffset" : 22908
        },
        {
            "buffer" : 0,
            "byteLength" : 120,
            "byteOffset" : 23228
        }
    ],
    "buffers" : [
        {
            "byteLength" : 23348,
            "uri" : "data:application/octet-stream;base64,"
        }
    ]
}
