{
    "asset" : {
        "generator" : "Khronos glTF Blender I/O v1.3.48",
        "version" : "2.0"
    },
    "scene" : 0,
    "scenes" : [
        {
            "name" : "Scene",
            "nodes" : [
                0,
                1,
                2,
                3,
                4,
                5,
                6,
                7,
                8,
                9
            ]
        }
    ],
    "nodes" : [
        {
            "name" : "Light",
            "rotation" : [
                0.16907575726509094,
                0.7558803558349609,
                -0.27217137813568115,
                0.570947527885437
            ],
            "scale" : [
                0.6249558925628662,
                0.6249558329582214,
                0.624955952167511
            ],
            "translation" : [
                3.490248203277588,
                3.708646297454834,
                -3.03895902633667
            ]
        },
        {
            "name" : "Camera",
            "rotation" : [
                0.586372435092926,
                0,
                0,
                0.8100415468215942
            ],
            "scale" : [
                0.6249557733535767,
                0.6249558925628662,
                0.6249557733535767
            ],
            "translation" : [
                0,
                3.756531238555908,
                7
            ]
        },
        {
            "name" : "Empty",
            "rotation" : [
                0.5618600249290466,
                0.5621702075004578,
                -0.42923274636268616,
                0.428995817899704
            ],
            "translation" : [
                -0.006809100043028593,
                -0.8534878492355347,
                -0.7471309900283813
            ]
        },
        {
            "mesh" : 0,
            "name" : "Eyes",
            "rotation" : [
                0,
                -0.7047539949417114,
                0,
                0.7094517946243286
            ],
            "scale" : [
                0.11104805022478104,
                0.11104805022478104,
                0.11104805022478104
            ],
            "translation" : [
                1.60429048538208,
                1.0832324028015137,
                -1.2328250408172607
            ]
        },
        {
            "mesh" : 1,
            "name" : "Upper_Body",
            "rotation" : [
                0,
                -0.7047539949417114,
                0,
                0.7094517946243286
            ],
            "scale" : [
                0.11104805022478104,
                0.11104805022478104,
                0.11104805022478104
            ],
            "translation" : [
                -0.9575697183609009,
                4.6218485832214355,
                -0.18361565470695496
            ]
        },
        {
            "mesh" : 2,
            "name" : "Face_Details",
            "rotation" : [
                0.4983363449573517,
                -0.4983362853527069,
                -0.5016581416130066,
                0.5016582012176514
            ],
            "scale" : [
                0.11104805022478104,
                0.11104805022478104,
                0.11104805022478104
            ],
            "translation" : [
                0.3092440962791443,
                2.0539748668670654,
                0.891854465007782
            ]
        },
        {
            "mesh" : 3,
            "name" : "Tongue",
            "rotation" : [
                0,
                -0.7047539949417114,
                0,
                0.7094517946243286
            ],
            "scale" : [
                0.11104805022478104,
                0.11104805022478104,
                0.11104805022478104
            ],
            "translation" : [
                0.8903660774230957,
                0.3972216844558716,
                0.29756680130958557
            ]
        },
        {
            "mesh" : 4,
            "name" : "Upper_Head",
            "rotation" : [
                0.4983363449573517,
                -0.4983362853527069,
                -0.5016581416130066,
                0.5016582012176514
            ],
            "scale" : [
                0.0343320369720459,
                0.042925845831632614,
                0.024643857032060623
            ],
            "translation" : [
                0.17003893852233887,
                0.049613237380981445,
                -0.19110724329948425
            ]
        },
        {
            "mesh" : 5,
            "name" : "Lower_Head",
            "rotation" : [
                0.4983363449573517,
                -0.4983362853527069,
                -0.5016581416130066,
                0.5016582012176514
            ],
            "scale" : [
                0.0343320369720459,
                0.042925845831632614,
                0.024643857032060623
            ],
            "translation" : [
                0.17003893852233887,
                0.049613237380981445,
                -0.19110724329948425
            ]
        },
        {
            "mesh" : 6,
            "name" : "Lower_Body",
            "rotation" : [
                0,
                -0.7047539949417114,
                0,
                0.7094517946243286
            ],
            "scale" : [
                0.11104805022478104,
                0.11104805022478104,
                0.11104805022478104
            ],
            "translation" : [
                -0.9575697183609009,
                4.6218485832214355,
                -0.18361565470695496
            ]
        }
    ],
    "materials" : [
        {
            "doubleSided" : true,
            "emissiveFactor" : [
                0,
                0,
                0
            ],
            "name" : "eyes_color",
            "pbrMetallicRoughness" : {
                "baseColorFactor" : [
                    0,
                    0,
                    0,
                    1
                ],
                "metallicFactor" : 0,
                "roughnessFactor" : 0.5
            }
        },
        {
            "doubleSided" : true,
            "emissiveFactor" : [
                0,
                0,
                0
            ],
            "name" : "Upper_Body",
            "pbrMetallicRoughness" : {
                "baseColorFactor" : [
                    0.2704978287220001,
                    1,
                    0.1356334388256073,
                    1
                ],
                "metallicFactor" : 0,
                "roughnessFactor" : 0.5
            }
        },
        {
            "doubleSided" : true,
            "name" : "black_stroke",
            "pbrMetallicRoughness" : {}
        },
        {
            "doubleSided" : true,
            "emissiveFactor" : [
                0,
                0,
                0
            ],
            "name" : "Tongue",
            "pbrMetallicRoughness" : {
                "baseColorFactor" : [
                    0.8000000715255737,
                    0.0875459685921669,
                    0.5069714188575745,
                    1
                ],
                "metallicFactor" : 0,
                "roughnessFactor" : 0.5
            }
        },
        {
            "doubleSided" : true,
            "emissiveFactor" : [
                0,
                0,
                0
            ],
            "name" : "Upper_Head",
            "pbrMetallicRoughness" : {
                "baseColorFactor" : [
                    0.2711474895477295,
                    1,
                    0.1367063969373703,
                    1
                ],
                "metallicFactor" : 0,
                "roughnessFactor" : 0.5
            }
        },
        {
            "doubleSided" : true,
            "emissiveFactor" : [
                0,
                0,
                0
            ],
            "name" : "Lower_Head",
            "pbrMetallicRoughness" : {
                "baseColorFactor" : [
                    0.673709511756897,
                    0.8000000715255737,
                    0.06600822508335114,
                    1
                ],
                "metallicFactor" : 0,
                "roughnessFactor" : 0.5
            }
        },
        {
            "doubleSided" : true,
            "emissiveFactor" : [
                0,
                0,
                0
            ],
            "name" : "Lower_Body",
            "pbrMetallicRoughness" : {
                "baseColorFactor" : [
                    0.7859809398651123,
                    0.8000000715255737,
                    0.1090969666838646,
                    1
                ],
                "metallicFactor" : 0,
                "roughnessFactor" : 0.5
            }
        }
    ],
    "meshes" : [
        {
            "name" : "eyes",
            "primitives" : [
                {
                    "attributes" : {
                        "POSITION" : 0,
                        "NORMAL" : 1,
                        "TEXCOORD_0" : 2
                    },
                    "indices" : 3,
                    "material" : 0
                }
            ]
        },
        {
            "name" : "Upper_Body",
            "primitives" : [
                {
                    "attributes" : {
                        "POSITION" : 4,
                        "NORMAL" : 5,
                        "TEXCOORD_0" : 6
                    },
                    "indices" : 7,
                    "material" : 1
                }
            ]
        },
        {
            "name" : "head_black_stroke",
            "primitives" : [
                {
                    "attributes" : {
                        "POSITION" : 8,
                        "NORMAL" : 9,
                        "TEXCOORD_0" : 10
                    },
                    "indices" : 11,
                    "material" : 2
                }
            ]
        },
        {
            "name" : "tongue",
            "primitives" : [
                {
                    "attributes" : {
                        "POSITION" : 12,
                        "NORMAL" : 13,
                        "TEXCOORD_0" : 14
                    },
                    "indices" : 15,
                    "material" : 3
                }
            ]
        },
        {
            "name" : "Upper_Head",
            "primitives" : [
                {
                    "attributes" : {
                        "POSITION" : 16,
                        "NORMAL" : 17,
                        "TEXCOORD_0" : 18
                    },
                    "indices" : 19,
                    "material" : 4
                }
            ]
        },
        {
            "name" : "Lower_Head",
            "primitives" : [
                {
                    "attributes" : {
                        "POSITION" : 20,
                        "NORMAL" : 21,
                        "TEXCOORD_0" : 22
                    },
                    "indices" : 23,
                    "material" : 5
                }
            ]
        },
        {
            "name" : "Lower_Body",
            "primitives" : [
                {
                    "attributes" : {
                        "POSITION" : 24,
                        "NORMAL" : 25,
                        "TEXCOORD_0" : 26
                    },
                    "indices" : 27,
                    "material" : 6
                }
            ]
        }
    ],
    "accessors" : [
        {
            "bufferView" : 0,
            "componentType" : 5126,
            "count" : 3968,
            "max" : [
                12.773320198059082,
                9.877721786499023,
                17.701969146728516
            ],
            "min" : [
                10.861736297607422,
                8.447431564331055,
                8.533346176147461
            ],
            "type" : "VEC3"
        },
        {
            "bufferView" : 1,
            "componentType" : 5126,
            "count" : 3968,
            "type" : "VEC3"
        },
        {
            "bufferView" : 2,
            "componentType" : 5126,
            "count" : 3968,
            "type" : "VEC2"
        },
        {
            "bufferView" : 3,
            "componentType" : 5123,
            "count" : 5760,
            "type" : "SCALAR"
        },
        {
            "bufferView" : 4,
            "componentType" : 5126,
            "count" : 14372,
            "max" : [
                5.967762470245361,
                -28.287439346313477,
                4.07838773727417
            ],
            "min" : [
                -12.910327911376953,
                -40.388511657714844,
                -22.949316024780273
            ],
            "type" : "VEC3"
        },
        {
            "bufferView" : 5,
            "componentType" : 5126,
            "count" : 14372,
            "type" : "VEC3"
        },
        {
            "bufferView" : 6,
            "componentType" : 5126,
            "count" : 14372,
            "type" : "VEC2"
        },
        {
            "bufferView" : 7,
            "componentType" : 5123,
            "count" : 21684,
            "type" : "SCALAR"
        },
        {
            "bufferView" : 8,
            "componentType" : 5126,
            "count" : 120,
            "max" : [
                2.271296977996826,
                -5.847570896148682,
                8.220534324645996
            ],
            "min" : [
                -3.4291558265686035,
                -8.121500015258789,
                -5.263372421264648
            ],
            "type" : "VEC3"
        },
        {
            "bufferView" : 9,
            "componentType" : 5126,
            "count" : 120,
            "type" : "VEC3"
        },
        {
            "bufferView" : 10,
            "componentType" : 5126,
            "count" : 120,
            "type" : "VEC2"
        },
        {
            "bufferView" : 11,
            "componentType" : 5123,
            "count" : 336,
            "type" : "SCALAR"
        },
        {
            "bufferView" : 12,
            "componentType" : 5126,
            "count" : 975,
            "max" : [
                -0.11017780005931854,
                11.044178009033203,
                14.647375106811523
            ],
            "min" : [
                -0.22062112390995026,
                7.890942573547363,
                8.824417114257812
            ],
            "type" : "VEC3"
        },
        {
            "bufferView" : 13,
            "componentType" : 5126,
            "count" : 975,
            "type" : "VEC3"
        },
        {
            "bufferView" : 14,
            "componentType" : 5126,
            "count" : 975,
            "type" : "VEC2"
        },
        {
            "bufferView" : 15,
            "componentType" : 5123,
            "count" : 1668,
            "type" : "SCALAR"
        },
        {
            "bufferView" : 16,
            "componentType" : 5126,
            "count" : 1730,
            "max" : [
                -43.01645278930664,
                13.20216178894043,
                35.93717956542969
            ],
            "min" : [
                -81.43783569335938,
                -14.486323356628418,
                -34.608154296875
            ],
            "type" : "VEC3"
        },
        {
            "bufferView" : 17,
            "componentType" : 5126,
            "count" : 1730,
            "type" : "VEC3"
        },
        {
            "bufferView" : 18,
            "componentType" : 5126,
            "count" : 1730,
            "type" : "VEC2"
        },
        {
            "bufferView" : 19,
            "componentType" : 5123,
            "count" : 2781,
            "type" : "SCALAR"
        },
        {
            "bufferView" : 20,
            "componentType" : 5126,
            "count" : 2240,
            "max" : [
                -40.06790542602539,
                14.205069541931152,
                36.00083541870117
            ],
            "min" : [
                -60.549129486083984,
                -14.486323356628418,
                -34.608154296875
            ],
            "type" : "VEC3"
        },
        {
            "bufferView" : 21,
            "componentType" : 5126,
            "count" : 2240,
            "type" : "VEC3"
        },
        {
            "bufferView" : 22,
            "componentType" : 5126,
            "count" : 2240,
            "type" : "VEC2"
        },
        {
            "bufferView" : 23,
            "componentType" : 5123,
            "count" : 3300,
            "type" : "SCALAR"
        },
        {
            "bufferView" : 24,
            "componentType" : 5126,
            "count" : 14306,
            "max" : [
                5.7006916999816895,
                -28.287439346313477,
                3.809041738510132
            ],
            "min" : [
                -12.672927856445312,
                -41.46453094482422,
                -23.764450073242188
            ],
            "type" : "VEC3"
        },
        {
            "bufferView" : 25,
            "componentType" : 5126,
            "count" : 14306,
            "type" : "VEC3"
        },
        {
            "bufferView" : 26,
            "componentType" : 5126,
            "count" : 14306,
            "type" : "VEC2"
        },
        {
            "bufferView" : 27,
            "componentType" : 5123,
            "count" : 21504,
            "type" : "SCALAR"
        }
    ],
    "bufferViews" : [
        {
            "buffer" : 0,
            "byteLength" : 47616,
            "byteOffset" : 0
        },
        {
            "buffer" : 0,
            "byteLength" : 47616,
            "byteOffset" : 47616
        },
        {
            "buffer" : 0,
            "byteLength" : 31744,
            "byteOffset" : 95232
        },
        {
            "buffer" : 0,
            "byteLength" : 11520,
            "byteOffset" : 126976
        },
        {
            "buffer" : 0,
            "byteLength" : 172464,
            "byteOffset" : 138496
        },
        {
            "buffer" : 0,
            "byteLength" : 172464,
            "byteOffset" : 310960
        },
        {
            "buffer" : 0,
            "byteLength" : 114976,
            "byteOffset" : 483424
        },
        {
            "buffer" : 0,
            "byteLength" : 43368,
            "byteOffset" : 598400
        },
        {
            "buffer" : 0,
            "byteLength" : 1440,
            "byteOffset" : 641768
        },
        {
            "buffer" : 0,
            "byteLength" : 1440,
            "byteOffset" : 643208
        },
        {
            "buffer" : 0,
            "byteLength" : 960,
            "byteOffset" : 644648
        },
        {
            "buffer" : 0,
            "byteLength" : 672,
            "byteOffset" : 645608
        },
        {
            "buffer" : 0,
            "byteLength" : 11700,
            "byteOffset" : 646280
        },
        {
            "buffer" : 0,
            "byteLength" : 11700,
            "byteOffset" : 657980
        },
        {
            "buffer" : 0,
            "byteLength" : 7800,
            "byteOffset" : 669680
        },
        {
            "buffer" : 0,
            "byteLength" : 3336,
            "byteOffset" : 677480
        },
        {
            "buffer" : 0,
            "byteLength" : 20760,
            "byteOffset" : 680816
        },
        {
            "buffer" : 0,
            "byteLength" : 20760,
            "byteOffset" : 701576
        },
        {
            "buffer" : 0,
            "byteLength" : 13840,
            "byteOffset" : 722336
        },
        {
            "buffer" : 0,
            "byteLength" : 5562,
            "byteOffset" : 736176
        },
        {
            "buffer" : 0,
            "byteLength" : 26880,
            "byteOffset" : 741740
        },
        {
            "buffer" : 0,
            "byteLength" : 26880,
            "byteOffset" : 768620
        },
        {
            "buffer" : 0,
            "byteLength" : 17920,
            "byteOffset" : 795500
        },
        {
            "buffer" : 0,
            "byteLength" : 6600,
            "byteOffset" : 813420
        },
        {
            "buffer" : 0,
            "byteLength" : 171672,
            "byteOffset" : 820020
        },
        {
            "buffer" : 0,
            "byteLength" : 171672,
            "byteOffset" : 991692
        },
        {
            "buffer" : 0,
            "byteLength" : 114448,
            "byteOffset" : 1163364
        },
        {
            "buffer" : 0,
            "byteLength" : 43008,
            "byteOffset" : 1277812
        }
    ],
    "buffers" : [
        {
            "byteLength" : 1320820,
            "uri" : "data:application/octet-stream;base64,"
        }
    ]
}
